<mxfile host="app.diagrams.net" modified="2023-08-24T13:07:02.852Z" agent="Mozilla/5.0 (Windows NT 10.0; Win64; x64) AppleWebKit/537.36 (KHTML, like Gecko) Chrome/116.0.0.0 Safari/537.36" etag="Qw0vv8dp3f6sotOUZmWW" version="21.6.9" type="device">
  <diagram name="Page-1" id="Tlnvadh14PchqNPdG1ud">
    <mxGraphModel dx="1050" dy="542" grid="1" gridSize="10" guides="1" tooltips="1" connect="1" arrows="1" fold="1" page="1" pageScale="1" pageWidth="850" pageHeight="1100" math="0" shadow="0">
      <root>
        <mxCell id="0" />
        <mxCell id="1" parent="0" />
        <mxCell id="o2FG_Hl4qa0g5_bm2fqQ-11" style="edgeStyle=none;rounded=0;orthogonalLoop=1;jettySize=auto;html=1;" edge="1" parent="1" source="o2FG_Hl4qa0g5_bm2fqQ-2" target="o2FG_Hl4qa0g5_bm2fqQ-5">
          <mxGeometry relative="1" as="geometry" />
        </mxCell>
        <mxCell id="o2FG_Hl4qa0g5_bm2fqQ-14" style="edgeStyle=none;rounded=0;orthogonalLoop=1;jettySize=auto;html=1;" edge="1" parent="1" source="o2FG_Hl4qa0g5_bm2fqQ-2" target="o2FG_Hl4qa0g5_bm2fqQ-4">
          <mxGeometry relative="1" as="geometry" />
        </mxCell>
        <mxCell id="o2FG_Hl4qa0g5_bm2fqQ-16" style="edgeStyle=none;rounded=0;orthogonalLoop=1;jettySize=auto;html=1;" edge="1" parent="1" source="o2FG_Hl4qa0g5_bm2fqQ-2" target="o2FG_Hl4qa0g5_bm2fqQ-3">
          <mxGeometry relative="1" as="geometry" />
        </mxCell>
        <mxCell id="o2FG_Hl4qa0g5_bm2fqQ-2" value="" style="shape=image;verticalLabelPosition=bottom;labelBackgroundColor=default;verticalAlign=top;aspect=fixed;imageAspect=0;image=https://cdn2.iconfinder.com/data/icons/whcompare-isometric-web-hosting-servers/50/value-server-512.png;direction=east;" vertex="1" parent="1">
          <mxGeometry x="100" y="210" width="132" height="132" as="geometry" />
        </mxCell>
        <mxCell id="o2FG_Hl4qa0g5_bm2fqQ-3" value="" style="shape=image;verticalLabelPosition=bottom;labelBackgroundColor=default;verticalAlign=top;aspect=fixed;imageAspect=0;image=https://cdn2.iconfinder.com/data/icons/whcompare-isometric-web-hosting-servers/50/value-server-512.png;" vertex="1" parent="1">
          <mxGeometry x="410" y="418" width="132" height="132" as="geometry" />
        </mxCell>
        <mxCell id="o2FG_Hl4qa0g5_bm2fqQ-4" value="" style="shape=image;verticalLabelPosition=bottom;labelBackgroundColor=default;verticalAlign=top;aspect=fixed;imageAspect=0;image=https://cdn2.iconfinder.com/data/icons/whcompare-isometric-web-hosting-servers/50/value-server-512.png;" vertex="1" parent="1">
          <mxGeometry x="410" y="210" width="132" height="132" as="geometry" />
        </mxCell>
        <mxCell id="o2FG_Hl4qa0g5_bm2fqQ-5" value="" style="shape=image;verticalLabelPosition=bottom;labelBackgroundColor=default;verticalAlign=top;aspect=fixed;imageAspect=0;image=https://cdn2.iconfinder.com/data/icons/whcompare-isometric-web-hosting-servers/50/value-server-512.png;" vertex="1" parent="1">
          <mxGeometry x="410" y="10" width="132" height="132" as="geometry" />
        </mxCell>
        <mxCell id="o2FG_Hl4qa0g5_bm2fqQ-19" value="&lt;font style=&quot;font-size: 14px;&quot;&gt;&lt;b&gt;ceph-admin&lt;br&gt;Role: deploy cephadm&lt;br&gt;ip: 192.168.253.134&lt;/b&gt;&lt;/font&gt;" style="text;html=1;strokeColor=none;fillColor=none;align=left;verticalAlign=middle;whiteSpace=wrap;rounded=0;fontSize=12;fontFamily=Helvetica;fontColor=default;" vertex="1" parent="1">
          <mxGeometry x="100" y="142" width="170" height="52" as="geometry" />
        </mxCell>
        <mxCell id="o2FG_Hl4qa0g5_bm2fqQ-20" value="&lt;font style=&quot;font-size: 14px;&quot;&gt;&lt;b&gt;ceph-osd1&lt;br&gt;Role: ceph OSD1&lt;br&gt;ip: 192.168.253.135&lt;/b&gt;&lt;/font&gt;" style="text;html=1;strokeColor=none;fillColor=none;align=left;verticalAlign=middle;whiteSpace=wrap;rounded=0;fontSize=12;fontFamily=Helvetica;fontColor=default;" vertex="1" parent="1">
          <mxGeometry x="540" y="260" width="170" height="52" as="geometry" />
        </mxCell>
        <mxCell id="o2FG_Hl4qa0g5_bm2fqQ-21" value="&lt;font style=&quot;font-size: 14px;&quot;&gt;&lt;b&gt;ceph-mon&lt;br&gt;Role:&lt;br&gt;&lt;div style=&quot;&quot;&gt;&lt;b style=&quot;background-color: initial;&quot;&gt;&lt;span style=&quot;white-space: pre;&quot;&gt;&#x9;&lt;/span&gt;ceph monitor&lt;/b&gt;&lt;/div&gt;&lt;div style=&quot;&quot;&gt;&lt;b style=&quot;background-color: initial;&quot;&gt;&lt;span style=&quot;white-space: pre;&quot;&gt;&#x9;&lt;/span&gt;ceph manager&lt;/b&gt;&lt;/div&gt;&lt;div style=&quot;&quot;&gt;&lt;b style=&quot;background-color: initial;&quot;&gt;&lt;span style=&quot;white-space: pre;&quot;&gt;&#x9;&lt;/span&gt;ceph OSD0&lt;/b&gt;&lt;/div&gt;ip: 192.168.253.133&lt;/b&gt;&lt;/font&gt;" style="text;html=1;strokeColor=none;fillColor=none;align=left;verticalAlign=middle;whiteSpace=wrap;rounded=0;fontSize=12;fontFamily=Helvetica;fontColor=default;" vertex="1" parent="1">
          <mxGeometry x="542" y="50" width="150" height="52" as="geometry" />
        </mxCell>
        <mxCell id="o2FG_Hl4qa0g5_bm2fqQ-22" value="&lt;font style=&quot;font-size: 14px;&quot;&gt;&lt;b&gt;ceph-osd2&lt;br&gt;Role: ceph OSD2&lt;br&gt;ip: 192.168.253.136&lt;/b&gt;&lt;/font&gt;" style="text;html=1;strokeColor=none;fillColor=none;align=left;verticalAlign=middle;whiteSpace=wrap;rounded=0;fontSize=12;fontFamily=Helvetica;fontColor=default;" vertex="1" parent="1">
          <mxGeometry x="542" y="458" width="170" height="52" as="geometry" />
        </mxCell>
      </root>
    </mxGraphModel>
  </diagram>
</mxfile>
